<?xml version="1.0" encoding="UTF-8"?>
<svg width="24px" height="24px" viewBox="0 0 24 24" version="1.1" xmlns="http://www.w3.org/2000/svg" xmlns:xlink="http://www.w3.org/1999/xlink">
    <!-- Generator: Sketch 48.2 (47327) - http://www.bohemiancoding.com/sketch -->
    <title>codepen</title>
    <desc>Created with Sketch.</desc>
    <defs></defs>
    <g id="home" stroke="none" stroke-width="1" fill="none" fill-rule="evenodd" transform="translate(-1224.000000, -192.000000)">
        <g id="codepen" transform="translate(1224.000000, 192.000000)" fill="#090909" fill-rule="nonzero">
            <path d="M11.9889405,0.00138183516 L23.2755218,7.69814661 L23.2755218,15.4375751 L11.9889405,23.183863 L0.702359203,15.4375751 L0.702359203,7.69814661 L11.9889405,0.00138183516 Z M1.62543613,8.2166398 L1.62543613,14.9209062 L11.9889405,22.0336613 L22.3524449,14.9209062 L22.3524449,8.2166398 L11.9889405,1.14935757 L1.62543613,8.2166398 Z" id="Path-3"></path>
            <path d="M11.5700978,7.54586501 L11.5700978,0.636728722 L12.4931748,0.636728722 L12.4931748,7.5862962 L22.896794,14.770637 L22.3861827,15.5703877 L12.0020138,8.39947846 L1.52152079,15.5714931 L1.01412565,14.7695316 L11.5700978,7.54586501 Z" id="Combined-Shape"></path>
            <path d="M11.5700978,14.265865 L11.5700978,7.35672872 L12.4931748,7.35672872 L12.4931748,14.3062962 L22.896794,21.490637 L22.3861827,22.2903877 L12.0020138,15.1194785 L1.52152079,22.2914931 L1.01412565,21.4895316 L11.5700978,14.265865 Z" id="Combined-Shape" transform="translate(11.955460, 14.824111) scale(1, -1) translate(-11.955460, -14.824111) "></path>
        </g>
    </g>
</svg>