<?xml version="1.0" encoding="UTF-8"?>
<svg width="25px" height="25px" viewBox="0 0 25 25" version="1.1" xmlns="http://www.w3.org/2000/svg" xmlns:xlink="http://www.w3.org/1999/xlink">
    <!-- Generator: Sketch 48.2 (47327) - http://www.bohemiancoding.com/sketch -->
    <title>dribbble</title>
    <desc>Created with Sketch.</desc>
    <defs></defs>
    <g id="home" stroke="none" stroke-width="1" fill="none" fill-rule="evenodd" transform="translate(-1223.000000, -143.000000)">
        <g id="dribbble" transform="translate(1223.000000, 143.000000)" fill="#000000" fill-rule="nonzero">
            <path d="M5.79666603,22 L5,21.4381231 C7.66014026,17.7210103 10.5939997,15.2227373 13.8050027,13.956081 C17.0306918,12.6836314 20.7668525,12.6836314 25,13.9421876 L24.7196306,14.8715553 C20.6849598,13.6720082 17.1715371,13.6720082 14.1658776,14.8576619 C11.1455321,16.0491088 8.35465344,18.4256292 5.79666603,22 Z" id="Path-8"></path>
            <path d="M7.96580392,2.36129722 L8.7484345,1.73881078 C11.2188692,4.84480244 13.1761524,8.07385253 14.6191582,11.4255577 C16.0569944,14.7652553 17.326842,18.809446 18.4303013,23.5593161 L17.4562407,23.7856036 C16.3654133,19.0901075 15.1130214,15.1015094 13.7006654,11.8209953 C12.293479,8.55248887 10.3822339,5.39939062 7.96580392,2.36129722 Z" id="Path-7"></path>
            <path d="M1,11.1286219 L1.07090615,10.1313179 C6.40361238,10.5373817 10.4643907,10.1996771 13.2419361,9.13214026 C15.9930554,8.07476022 18.3060816,6.03610229 20.18648,3 L21,3.5396249 C19.011021,6.75104206 16.535316,8.93308202 13.5783501,10.0695783 C10.6478103,11.1959178 6.45879528,11.5442869 1,11.1286219 Z" id="Path-9"></path>
            <path d="M12.5,24.5 C5.872583,24.5 0.5,19.127417 0.5,12.5 C0.5,5.872583 5.872583,0.5 12.5,0.5 C19.127417,0.5 24.5,5.872583 24.5,12.5 C24.5,19.127417 19.127417,24.5 12.5,24.5 Z M12.5,23.54 C18.5972236,23.54 23.54,18.5972236 23.54,12.5 C23.54,6.40277636 18.5972236,1.46 12.5,1.46 C6.40277636,1.46 1.46,6.40277636 1.46,12.5 C1.46,18.5972236 6.40277636,23.54 12.5,23.54 Z" id="Oval-2"></path>
        </g>
    </g>
</svg>